<?xml version="1.0" standalone="no"?>
<!DOCTYPE svg PUBLIC "-//W3C//DTD SVG 20010904//EN"
 "http://www.w3.org/TR/2001/REC-SVG-20010904/DTD/svg10.dtd">
<svg version="1.0" xmlns="http://www.w3.org/2000/svg"
 width="414.000000pt" height="114.000000pt" viewBox="0 0 414.000000 114.000000"
 preserveAspectRatio="xMidYMid meet">

<g transform="translate(0.000000,114.000000) scale(0.100000,-0.100000)"
fill="#000000" stroke="none">
<path d="M2077 848 c-3 -7 -35 -85 -72 -173 -138 -333 -175 -423 -175 -429 0
-4 7 -6 16 -4 8 2 32 41 53 88 l38 85 150 3 c113 2 153 -1 160 -10 5 -7 25
-48 43 -90 27 -61 39 -77 59 -81 27 -5 51 1 51 13 0 5 -29 71 -64 147 -35 76
-91 199 -125 273 -33 74 -66 147 -73 162 -14 29 -51 39 -61 16z m138 -367 c6
-21 4 -21 -107 -22 -111 -1 -140 0 -146 6 -4 3 57 157 98 250 l23 50 62 -131
c35 -72 66 -141 70 -153z"/>
<path d="M2654 680 c-12 -4 -30 -20 -42 -34 -26 -34 -32 -33 -32 4 0 28 -3 30
-35 30 l-35 0 2 -332 3 -333 30 0 30 0 3 144 3 144 34 -33 c28 -27 44 -34 89
-38 71 -6 117 11 160 58 41 45 56 92 56 175 0 64 -30 145 -66 177 -47 42 -145
60 -200 38z m117 -53 c50 -33 69 -79 69 -166 0 -122 -47 -191 -130 -191 -81 0
-121 54 -128 171 -6 95 8 140 56 179 44 37 86 39 133 7z"/>
<path d="M3130 668 c-70 -36 -102 -90 -108 -182 -7 -118 37 -204 125 -242 38
-16 123 -18 172 -4 37 10 101 50 101 63 0 20 -33 16 -65 -9 -53 -40 -136 -45
-185 -12 -41 27 -70 80 -70 126 l0 32 165 0 165 0 0 26 c0 164 -161 272 -300
202z m162 -28 c32 -25 55 -74 60 -125 l3 -40 -127 -3 -128 -3 0 38 c0 48 31
115 61 137 33 22 100 21 131 -4z"/>
<path d="M3526 653 c9 -15 44 -63 76 -106 32 -43 58 -84 58 -90 0 -7 -33 -57
-74 -112 -46 -61 -70 -102 -64 -106 20 -12 34 1 97 86 34 47 67 85 74 85 7 0
18 -10 26 -22 32 -53 107 -148 116 -149 54 -4 65 -3 65 4 0 5 -36 59 -81 119
-48 66 -78 116 -75 125 3 8 33 52 66 97 33 46 60 86 60 89 0 4 -9 7 -19 7 -12
0 -39 -28 -77 -80 -31 -44 -60 -80 -64 -80 -4 0 -31 36 -61 80 -54 79 -54 79
-98 80 l-43 0 18 -27z"/>
</g>
</svg>
